<mxfile host="app.diagrams.net" agent="Mozilla/5.0 (Macintosh; Intel Mac OS X 10_15_7) AppleWebKit/537.36 (KHTML, like Gecko) Chrome/137.0.0.0 Safari/537.36" version="27.1.1">
  <diagram name="Fintech Microservices" id="Pd5c1q-l97_yCdfVmLI4">
    <mxGraphModel dx="946" dy="620" grid="1" gridSize="10" guides="1" tooltips="1" connect="1" arrows="1" fold="1" page="1" pageScale="1" pageWidth="827" pageHeight="1169" math="0" shadow="0">
      <root>
        <mxCell id="0" />
        <mxCell id="1" parent="0" />
        <mxCell id="Q8eiOcfSKTH4gTMU-A-O-1" value="Next.js Frontend" style="shape=rectangle;whiteSpace=wrap;html=1;fillColor=#dae8fc;strokeColor=#6c8ebf;" parent="1" vertex="1">
          <mxGeometry x="400" y="20" width="160" height="60" as="geometry" />
        </mxCell>
        <mxCell id="Q8eiOcfSKTH4gTMU-A-O-2" value="API Gateway (.NET)" style="shape=rectangle;whiteSpace=wrap;html=1;fillColor=#fff2cc;strokeColor=#d6b656;" parent="1" vertex="1">
          <mxGeometry x="390" y="150" width="180" height="60" as="geometry" />
        </mxCell>
        <mxCell id="Q8eiOcfSKTH4gTMU-A-O-3" value="Stock Service (NestJS)" style="shape=rectangle;whiteSpace=wrap;html=1;fillColor=#d5e8d4;strokeColor=#82b366;" parent="1" vertex="1">
          <mxGeometry x="50" y="300" width="160" height="60" as="geometry" />
        </mxCell>
        <mxCell id="Q8eiOcfSKTH4gTMU-A-O-4" value="Portfolio Service" style="shape=rectangle;whiteSpace=wrap;html=1;fillColor=#f8cecc;strokeColor=#b85450;" parent="1" vertex="1">
          <mxGeometry x="270" y="290" width="160" height="60" as="geometry" />
        </mxCell>
        <mxCell id="Q8eiOcfSKTH4gTMU-A-O-5" value="Screening Service" style="shape=rectangle;whiteSpace=wrap;html=1;fillColor=#f8cecc;strokeColor=#b85450;" parent="1" vertex="1">
          <mxGeometry x="500" y="290" width="160" height="60" as="geometry" />
        </mxCell>
        <mxCell id="Q8eiOcfSKTH4gTMU-A-O-6" value="Auth Service" style="shape=rectangle;whiteSpace=wrap;html=1;fillColor=#f8cecc;strokeColor=#b85450;" parent="1" vertex="1">
          <mxGeometry x="730" y="300" width="160" height="60" as="geometry" />
        </mxCell>
        <mxCell id="Q8eiOcfSKTH4gTMU-A-O-7" value="Stock DB (PostgreSQL)" style="shape=cylinder;whiteSpace=wrap;html=1;fillColor=#d5e8d4;strokeColor=#82b366;" parent="1" vertex="1">
          <mxGeometry x="60" y="440" width="160" height="60" as="geometry" />
        </mxCell>
        <mxCell id="Q8eiOcfSKTH4gTMU-A-O-8" value="Portfolio DB" style="shape=cylinder;whiteSpace=wrap;html=1;fillColor=#f8cecc;strokeColor=#b85450;" parent="1" vertex="1">
          <mxGeometry x="300" y="440" width="160" height="60" as="geometry" />
        </mxCell>
        <mxCell id="Q8eiOcfSKTH4gTMU-A-O-9" value="Screening DB" style="shape=cylinder;whiteSpace=wrap;html=1;fillColor=#f8cecc;strokeColor=#b85450;" parent="1" vertex="1">
          <mxGeometry x="550" y="440" width="160" height="60" as="geometry" />
        </mxCell>
        <mxCell id="Q8eiOcfSKTH4gTMU-A-O-10" value="User DB" style="shape=cylinder;whiteSpace=wrap;html=1;fillColor=#f8cecc;strokeColor=#b85450;" parent="1" vertex="1">
          <mxGeometry x="790" y="440" width="160" height="60" as="geometry" />
        </mxCell>
        <mxCell id="Q8eiOcfSKTH4gTMU-A-O-11" style="endArrow=block;html=1;" parent="1" source="Q8eiOcfSKTH4gTMU-A-O-1" target="Q8eiOcfSKTH4gTMU-A-O-2" edge="1">
          <mxGeometry relative="1" as="geometry" />
        </mxCell>
        <mxCell id="Q8eiOcfSKTH4gTMU-A-O-12" style="endArrow=block;html=1;" parent="1" source="Q8eiOcfSKTH4gTMU-A-O-2" target="Q8eiOcfSKTH4gTMU-A-O-3" edge="1">
          <mxGeometry relative="1" as="geometry" />
        </mxCell>
        <mxCell id="Q8eiOcfSKTH4gTMU-A-O-13" style="endArrow=block;html=1;" parent="1" source="Q8eiOcfSKTH4gTMU-A-O-2" target="Q8eiOcfSKTH4gTMU-A-O-4" edge="1">
          <mxGeometry relative="1" as="geometry" />
        </mxCell>
        <mxCell id="Q8eiOcfSKTH4gTMU-A-O-14" style="endArrow=block;html=1;" parent="1" source="Q8eiOcfSKTH4gTMU-A-O-2" target="Q8eiOcfSKTH4gTMU-A-O-5" edge="1">
          <mxGeometry relative="1" as="geometry" />
        </mxCell>
        <mxCell id="Q8eiOcfSKTH4gTMU-A-O-15" style="endArrow=block;html=1;" parent="1" source="Q8eiOcfSKTH4gTMU-A-O-2" target="Q8eiOcfSKTH4gTMU-A-O-6" edge="1">
          <mxGeometry relative="1" as="geometry" />
        </mxCell>
      </root>
    </mxGraphModel>
  </diagram>
</mxfile>
